<svg width="264" height="46" viewBox="0 0 264 46" fill="none" xmlns="http://www.w3.org/2000/svg">
<path d="M0.0458984 35L8.1579 2.12001H18.7659L26.9259 35H21.5499L19.7739 27.944H7.1499L5.3739 35H0.0458984ZM12.2859 6.58401L8.2059 23.24H18.7179L14.6859 6.58401H12.2859Z" fill="#141414"/>
<path d="M28.0303 11H33.1663L38.2543 30.536H39.5503L44.6383 11H49.8223L40.7023 45.32H35.5663L38.4463 35H34.3183L28.0303 11Z" fill="#141414"/>
<path d="M53.8633 35V11H59.0473V13.88C61.7673 12.12 64.4873 10.984 67.2073 10.472V15.704C64.4553 16.248 62.1033 16.952 60.1513 17.816L59.0953 18.248V35H53.8633Z" fill="#141414"/>
<path d="M72.3155 13.592C73.9795 11.512 76.7315 10.472 80.5715 10.472C84.4115 10.472 87.1475 11.512 88.7795 13.592C90.4435 15.672 91.2755 18.792 91.2755 22.952C91.2755 27.112 90.4755 30.248 88.8755 32.36C87.2755 34.472 84.5075 35.528 80.5715 35.528C76.6355 35.528 73.8675 34.472 72.2675 32.36C70.6675 30.248 69.8675 27.112 69.8675 22.952C69.8675 18.792 70.6835 15.672 72.3155 13.592ZM76.2515 29.192C76.9875 30.472 78.4275 31.112 80.5715 31.112C82.7155 31.112 84.1555 30.472 84.8915 29.192C85.6275 27.912 85.9955 25.816 85.9955 22.904C85.9955 19.992 85.5955 17.928 84.7955 16.712C84.0275 15.496 82.6195 14.888 80.5715 14.888C78.5235 14.888 77.0995 15.496 76.2995 16.712C75.5315 17.928 75.1475 19.992 75.1475 22.904C75.1475 25.816 75.5155 27.912 76.2515 29.192Z" fill="#141414"/>
<path d="M101.705 35H96.4726V11H101.657V12.488C103.993 11.144 106.201 10.472 108.281 10.472C111.481 10.472 113.657 11.384 114.809 13.208C115.993 15 116.585 17.976 116.585 22.136V35H111.401V22.28C111.401 19.688 111.113 17.848 110.537 16.76C109.993 15.672 108.857 15.128 107.129 15.128C105.497 15.128 103.929 15.448 102.425 16.088L101.705 16.376V35Z" fill="#141414"/>
<path d="M143.495 6.24801C139.431 6.24801 137.399 7.67201 137.399 10.52C137.399 11.992 137.879 13.048 138.839 13.688C139.799 14.296 141.911 15.064 145.175 15.992C148.471 16.888 150.791 17.976 152.135 19.256C153.479 20.504 154.151 22.488 154.151 25.208C154.151 28.664 153.159 31.256 151.175 32.984C149.223 34.68 146.551 35.528 143.159 35.528C140.439 35.528 137.431 35.208 134.135 34.568L132.407 34.232L132.935 29.96C137.255 30.536 140.551 30.824 142.823 30.824C146.791 30.824 148.775 29.064 148.775 25.544C148.775 24.168 148.327 23.16 147.431 22.52C146.535 21.848 144.519 21.128 141.383 20.36C138.247 19.56 135.911 18.472 134.375 17.096C132.839 15.72 132.071 13.544 132.071 10.568C132.071 7.59201 133.031 5.35201 134.951 3.84801C136.903 2.31201 139.591 1.54401 143.015 1.54401C145.479 1.54401 148.391 1.83201 151.751 2.40801L153.431 2.69601L152.999 7.01601C148.519 6.50401 145.351 6.24801 143.495 6.24801Z" fill="#141414"/>
<path d="M177.045 18.392V29.336C177.077 30.04 177.253 30.568 177.573 30.92C177.925 31.24 178.453 31.448 179.157 31.544L179.013 35.528C176.261 35.528 174.133 34.936 172.629 33.752C170.069 34.936 167.493 35.528 164.901 35.528C160.133 35.528 157.749 32.984 157.749 27.896C157.749 25.464 158.389 23.704 159.669 22.616C160.981 21.528 162.981 20.872 165.669 20.648L171.861 20.12V18.392C171.861 17.112 171.573 16.216 170.997 15.704C170.453 15.192 169.637 14.936 168.549 14.936C166.501 14.936 163.941 15.064 160.869 15.32L159.333 15.416L159.141 11.72C162.629 10.888 165.829 10.472 168.741 10.472C171.685 10.472 173.797 11.112 175.077 12.392C176.389 13.64 177.045 15.64 177.045 18.392ZM166.293 24.344C164.085 24.536 162.981 25.736 162.981 27.944C162.981 30.152 163.957 31.256 165.909 31.256C167.509 31.256 169.205 31 170.997 30.488L171.861 30.2V23.816L166.293 24.344Z" fill="#141414"/>
<path d="M188.845 35H183.613V11H188.797V12.488C191.133 11.144 193.341 10.472 195.421 10.472C198.621 10.472 200.797 11.384 201.949 13.208C203.133 15 203.725 17.976 203.725 22.136V35H198.541V22.28C198.541 19.688 198.253 17.848 197.677 16.76C197.133 15.672 195.997 15.128 194.269 15.128C192.637 15.128 191.069 15.448 189.565 16.088L188.845 16.376V35Z" fill="#141414"/>
<path d="M216.104 15.464V35H210.92V15.464H208.136V11H210.92V9.46401C210.92 6.04001 211.416 3.68801 212.408 2.40801C213.4 1.12801 215.16 0.488007 217.688 0.488007L222.872 0.968006L222.824 5.24001C221.256 5.17601 219.944 5.14401 218.888 5.14401C217.864 5.14401 217.144 5.46401 216.728 6.10401C216.312 6.71201 216.104 7.84801 216.104 9.51201V11H222.44V15.464H216.104Z" fill="#141414"/>
<path d="M226.41 35V11H231.594V13.88C234.314 12.12 237.034 10.984 239.754 10.472V15.704C237.002 16.248 234.65 16.952 232.698 17.816L231.642 18.248V35H226.41Z" fill="#141414"/>
<path d="M261.514 18.392V29.336C261.546 30.04 261.722 30.568 262.042 30.92C262.394 31.24 262.922 31.448 263.626 31.544L263.482 35.528C260.73 35.528 258.602 34.936 257.098 33.752C254.538 34.936 251.962 35.528 249.37 35.528C244.602 35.528 242.218 32.984 242.218 27.896C242.218 25.464 242.858 23.704 244.138 22.616C245.45 21.528 247.45 20.872 250.138 20.648L256.33 20.12V18.392C256.33 17.112 256.042 16.216 255.466 15.704C254.922 15.192 254.106 14.936 253.018 14.936C250.97 14.936 248.41 15.064 245.338 15.32L243.802 15.416L243.61 11.72C247.098 10.888 250.298 10.472 253.21 10.472C256.154 10.472 258.266 11.112 259.546 12.392C260.858 13.64 261.514 15.64 261.514 18.392ZM250.762 24.344C248.554 24.536 247.45 25.736 247.45 27.944C247.45 30.152 248.426 31.256 250.378 31.256C251.978 31.256 253.674 31 255.466 30.488L256.33 30.2V23.816L250.762 24.344Z" fill="#141414"/>
</svg>
