<svg width="48" height="48" viewBox="0 0 48 48" fill="none" xmlns="http://www.w3.org/2000/svg">
<path d="M7 40C6.23333 40 5.54167 39.6917 4.925 39.075C4.30833 38.4583 4 37.7667 4 37V11C4 10.2333 4.30833 9.54167 4.925 8.925C5.54167 8.30833 6.23333 8 7 8H21.05L24.05 11H41C41.7667 11 42.4583 11.3083 43.075 11.925C43.6917 12.5417 44 13.2333 44 14H22.75L19.75 11H7V37L12.1 17H47L41.65 37.7C41.45 38.5 41.0833 39.0833 40.55 39.45C40.0167 39.8167 39.3333 40 38.5 40H7ZM10.15 37H38.75L42.95 20H14.35L10.15 37Z" fill="black"/>
</svg>
