<svg width="340" height="341" viewBox="0 0 340 341" fill="none" xmlns="http://www.w3.org/2000/svg">
<path d="M136.354 194.894L149.104 154.165L115.458 127.957H156.542L170 85.8108L183.104 127.957H224.542L190.896 154.165L203.292 194.894L170 169.748L136.354 194.894ZM86.4166 326.644V218.977C75.7916 207.88 68.177 195.72 63.5729 182.498C58.9687 169.276 56.6666 155.936 56.6666 142.477C56.6666 110.366 67.5277 83.4497 89.25 61.7274C110.972 40.0052 137.889 29.1441 170 29.1441C202.111 29.1441 229.028 40.0052 250.75 61.7274C272.472 83.4497 283.333 110.366 283.333 142.477C283.333 155.936 281.031 169.276 276.427 182.498C271.823 195.72 264.208 207.88 253.583 218.977V326.644L170 298.665L86.4166 326.644ZM170 234.561C195.736 234.561 217.517 225.648 235.344 207.821C253.17 189.995 262.083 168.214 262.083 142.477C262.083 116.741 253.17 94.9601 235.344 77.1337C217.517 59.3073 195.736 50.3941 170 50.3941C144.264 50.3941 122.483 59.3073 104.656 77.1337C86.8298 94.9601 77.9166 116.741 77.9166 142.477C77.9166 168.214 86.8298 189.995 104.656 207.821C122.483 225.648 144.264 234.561 170 234.561ZM107.667 296.894L170 277.415L232.333 296.894V236.332C222.889 243.179 212.736 248.137 201.875 251.207C191.014 254.276 180.389 255.811 170 255.811C159.611 255.811 148.986 254.276 138.125 251.207C127.264 248.137 117.111 243.179 107.667 236.332V296.894Z" fill="#E98612" fill-opacity="0.5"/>
</svg>
