<svg width="24" height="22" viewBox="0 0 24 22" fill="none" xmlns="http://www.w3.org/2000/svg">
<path d="M11.81 21.7195L16.724 8.68778H18.9502L24 21.7195H21.638L20.5249 18.2986H15.3122L14.0362 21.7195H11.81ZM15.9095 16.3982H19.7647L17.8643 11.1312H17.81L15.9095 16.3982ZM3.25792 18.4615L1.76471 16.9683L7.30317 11.4299C6.61538 10.6335 6.00452 9.83258 5.47059 9.02715C4.93665 8.22172 4.47059 7.38461 4.0724 6.51584H6.43439C6.74208 7.11312 7.08145 7.67873 7.45249 8.21267C7.82353 8.74661 8.24434 9.29412 8.71493 9.8552C9.52941 9.00452 10.2081 8.12217 10.7511 7.20814C11.2941 6.29412 11.7557 5.33937 12.1357 4.34389H0V2.17195H7.60181V0H9.77376V2.17195H17.3756V4.34389H14.3077C13.9095 5.59276 13.3801 6.819 12.7195 8.02262C12.0588 9.22624 11.2489 10.371 10.2896 11.457L12.9502 14.1448L12.1357 16.3439L8.68778 13.0317L3.25792 18.4615Z" fill="url(#paint0_linear_254_4)"/>
<defs>
<linearGradient id="paint0_linear_254_4" x1="12" y1="0" x2="12" y2="21.7195" gradientUnits="userSpaceOnUse">
<stop stop-color="#FFAA47"/>
<stop offset="1" stop-color="#E98612"/>
</linearGradient>
</defs>
</svg>
